<?xml version="1.0" encoding="UTF-8" standalone="no"?>
<svg width="22.4896mm" height="22.4896mm"
 xmlns="http://www.w3.org/2000/svg" xmlns:xlink="http://www.w3.org/1999/xlink"  version="1.2" baseProfile="tiny">
<desc>Created by HiQPdf</desc>
<defs>
</defs>
<g fill="none" stroke="#3399ff" stroke-width="1" fill-rule="evenodd" stroke-linecap="square" stroke-linejoin="bevel" >

<g fill="#3399ff" fill-opacity="1" stroke="#3399ff" stroke-opacity="1" stroke-width="1" stroke-linecap="square" stroke-linejoin="miter" stroke-miterlimit="2" transform="matrix(1,0,0,1,0,0)"
>
</g>

<g fill="#3399ff" fill-opacity="1" stroke="#3399ff" stroke-opacity="1" stroke-width="1" stroke-linecap="square" stroke-linejoin="miter" stroke-miterlimit="2" transform="matrix(1,0,0,1,0,0)"
>
</g>

<g fill="#3399ff" fill-opacity="1" stroke="#3399ff" stroke-opacity="1" stroke-width="1" stroke-linecap="square" stroke-linejoin="miter" stroke-miterlimit="2" transform="matrix(1,0,0,1,0,0)"
>
</g>

<g fill="#3399ff" fill-opacity="1" stroke="#3399ff" stroke-opacity="1" stroke-width="1" stroke-linecap="square" stroke-linejoin="miter" stroke-miterlimit="2" transform="matrix(1,0,0,1,0,0)"
>
</g>

<g fill="#3399ff" fill-opacity="1" stroke="#3399ff" stroke-opacity="1" stroke-width="1" stroke-linecap="square" stroke-linejoin="miter" stroke-miterlimit="2" transform="matrix(0.811765,0,0,0.811765,8,16)"
>
</g>

<g fill="#3399ff" fill-opacity="1" stroke="none" transform="matrix(0.811765,0,0,0.811765,8,16)"
>
<path vector-effect="none" fill-rule="nonzero" d="M14.4,71.1 C13.2,69 10.5,68.4 11,65.6 C11,65.4 10.6,65 10.4,65 C6.3,64.2 7.6,60.1 6.1,57.8 C5.8,57.3 6.3,56.2 6,55.9 C4,53.9 5.8,52.8 7,51.6 C6.4,50.9 5.7,50.2 5.1,49.5 C6.6,48.7 5,48 5.1,47.3 C5.4,44.9 4.5,43 3.1,41.1 C2.4,40.1 1.3,39 2.9,37.3 C3.7,36.5 5.1,34.6 3.3,32.6 C2.2,31.4 4.4,30.3 4.7,29 C4.7,28.9 6,28.9 5.9,28.6 C4.8,24.9 8.7,24.2 9.8,21.8 C10.2,20.9 11.4,20.5 11.8,19.6 C12,19 10.2,18.3 11.4,17.1 C12.2,17.7 13,18.5 13.9,18.9 C14.9,19.3 15.3,17.6 16.5,17.9 C17.1,18.1 17.9,18.1 18,17.2 C18.1,15.7 19.4,14.9 20.4,14.2 C22.3,12.8 22.6,10 24.7,9 C26.6,8.1 28.3,7.1 29.8,5.7 C31.6,4.2 33.6,4.5 35.8,5.8 C36.1,5.4 36.5,4.9 37,4.5 C37.7,3.9 38.4,2.4 39.2,3 C40.3,3.7 41.2,3.2 42.2,3.4 C43.6,3.7 45,5.2 46.7,3.9 C47.2,3.5 47.9,4.1 48.3,4.6 C51.1,8.2 55.1,8.5 59,9 C60.3,9.2 61.7,9.1 63,9 C64.1,8.9 64.9,9.2 65.6,10.1 C66.6,11.5 68,12.3 69.8,12.1 C70.2,12 70.7,12.3 71.1,12.6 C72.1,13.6 73,14.7 73.7,16 C74.2,17 75.7,17.5 76.7,18.2 C77.2,18.6 76.9,19.2 77.1,19.5 C78.5,21.9 79.2,24.6 80,27.3 C80.2,27.9 80.2,28.6 79.5,29.1 C78.7,29.7 78.8,31.1 79.1,31.3 C81.4,32.9 81.1,35.3 81.1,37.5 C81.1,37.6 81.3,37.8 81.4,37.9 C84.7,39.7 83.9,42.9 84.1,45.8 C84.4,49.4 84.6,49.4 82.7,51.9 C82.2,52.6 82.2,52.8 82.8,53.4 C83.1,53.7 83.1,54.3 83,54.7 C81.7,57.9 77,62.4 73,64 C71.8,64.5 70.9,65.3 70.5,66.2 C69.9,67.4 68.9,67.8 68.1,68.7 C66.9,69.9 65.6,70 64.2,70.4 C65.4,71.7 64.2,73.1 63.6,73.8 C62.2,75.5 60.9,77.8 58,77.1 C57.8,77.1 57.6,77 57.5,77.1 C55.5,80 52.4,79.8 49.3,80.4 C47.2,80.8 45.5,81.4 43.5,80.3 C41.8,79.4 39.8,80.4 37.8,79.7 C35.9,79 34.3,78.3 33,76.7 C32,75.4 30.8,74.8 29.2,75.1 C28,75.3 27,74.9 26.2,73.9 C25.5,73 24.9,73.2 23.8,73.7 C21,74.9 18.7,74 17,71.2 C16.1,69.4 15.5,70 14.4,71.1 M52.1,52.6 C50.6,53.6 49.6,54.7 50,56.4 C50.4,57.8 49.2,58.8 49.1,60 C48.9,61.3 47.8,60.7 47.3,61.2 C46.6,62 47.1,63.1 47,64.1 C46.9,64.7 46.6,64.8 46.1,65.1 C44.3,66.3 42,66.8 41.6,69.8 C41.4,71 39.8,72.5 37.7,72.2 C36.8,72.1 35.7,71.7 34.9,72.7 C36.2,73.9 38,72.6 39.4,74 C40.3,74.8 42.4,74.8 43.7,74.7 C45,74.6 46.5,73.6 47.8,73.8 C48.6,73.9 48.8,73.7 49.2,73.4 C49.8,72.9 50.2,72 51.2,72.3 C53.3,72.9 53.7,71.1 54.6,70 C55.6,68.8 57.5,68 57.7,66.3 C58,64.4 58.8,63.1 59.9,61.7 C61.1,60.1 59.1,58.6 59.8,57 C59.9,56.9 59.9,56.7 60,56.6 C61.3,55.6 60.9,54.7 59.9,53.8 C59.3,53.3 58.5,52.7 58.9,51.8 C60,49.3 55.8,49.1 56.8,46.7 C56.8,46.7 56.3,46.3 56,46.3 C53.4,46.4 51.7,44.6 49.8,42.8 C49,43.6 48.3,44.1 47.9,44.7 C47.4,45.6 48.2,46.2 48.9,46.7 C49.9,47.4 50,48.3 49.8,49.3 C49.7,50.8 51,51.4 52.1,52.6 M63.8,33 C63.1,33 62.5,33.1 61.8,33 C57.3,32.5 53.3,33.5 48.9,35.9 C48.2,36.3 47.9,36.6 48,37.2 C48.1,37.7 48.5,38 49,37.9 C50.8,37.7 52.2,38.9 54.1,39 C57.4,39.2 59.7,42.1 62.8,43.2 C64.4,43.7 63.7,45.5 64.2,46.6 C64.5,47.1 65.2,47.9 65.6,47.8 C67.3,47.6 66.8,49 67.2,49.7 C68.4,51.5 67.5,54.2 69.9,55.6 C70.2,55.7 70.1,57.1 69.8,57.4 C68.1,58.9 70,59.1 70.5,59.8 C71,59.3 71.5,58.9 71.9,58.4 C73.3,56.3 75.1,54.4 75.8,52.1 C76.9,48.3 74.9,44.5 74.9,40.6 C74.9,40.4 74.5,40 74.3,40 C72.2,39.8 71.3,38 70.2,36.7 C68.3,34.4 66.2,34.8 64,35.7 C64,34.8 63.9,34 63.8,33 M10.7,40.6 C12.2,41.1 13.3,41.4 13.9,42.5 C15.2,44.7 16.6,46.7 19.4,47.1 C20.4,47.3 19.4,49 21,49.1 C22.4,49.2 23.8,48.6 25.2,49.7 C26.6,50.8 28.2,49.2 29.5,48.8 C31.3,48.3 34.1,48.9 34.7,47.4 C35.6,45.3 38.5,45.6 38.8,43 C36.3,43 33.8,42.9 31.3,42.1 C28.6,41.2 26.7,39 23.9,38.4 C22.3,38 23.6,35.4 22.5,35.2 C20.8,34.8 19.8,33.6 19.2,32.5 C18.6,31.4 18.4,29.6 20.2,28.3 C16.7,28 16.8,25.4 16.9,22.1 C13.5,26.8 9.8,30.3 11.1,35.8 C11.8,36.1 12.9,36.4 12.7,36.5 C11.3,37.4 12.7,39.5 10.7,40.6 M47.4,19 C46.7,20.1 47.6,21.4 46.6,22 C44.8,22.9 44.4,24.6 43.4,26.1 C42.5,27.4 42.2,28.6 42.1,30.1 C42,31.5 42.6,32.7 42.7,34 C42.7,34.3 42,34.7 42.6,35 C42.9,35.1 43.4,35.2 43.6,35 C44.4,34.4 45.5,33.7 45.7,32.9 C46.2,31.1 48.1,31.1 48.9,29.8 C50,27.9 51.8,27.9 53.7,28 C53.9,28 54.2,27.5 54.4,27.4 C57,25.7 60.2,26.3 62.9,25.1 C63.5,24.8 64.4,24.9 65.2,25.5 C67.8,27.5 70.9,27.1 74.4,26.9 C73.4,25.5 71.9,24.9 72.1,23.2 C72.3,21.2 69.1,22.3 69.1,20 C69.1,18.1 68.2,20 67.8,19.9 C66.9,19.7 65.6,19.2 65.5,18.7 C65,16.7 63.7,17 62.5,17 C62,17 61.5,17.1 61,17 C57.7,16.5 55,16.8 52.3,18 C50.6,18.8 49,19.3 47.4,19 M42.5,47 C40.5,49 38.6,50.9 36.6,52.9 C36,53.5 35.6,54.2 34.6,54 C33.2,53.7 32.2,54.9 31.1,55.2 C28,56.1 24.6,56.5 21.4,56.7 C20.7,56.7 18.6,56 18.6,54.1 C17.5,55.3 16,55 14.6,55 C14,55 14,53.7 13,54.4 C13,55.3 13,56.3 13,57.3 C13,57.9 12.8,58.8 13.6,58.9 C15.5,59.1 15.1,62 16.8,61.8 C18.3,61.7 18.6,65 20.5,62.9 C21.1,65.9 24,64.6 25.3,65.9 C26.8,65.1 25.2,63.5 26.7,62.9 C27.3,63.9 26.5,65 27.4,65.8 C27.9,65.3 28.4,64.6 29.4,64.8 C31.2,65.2 33.1,64.7 34.4,63.7 C35.5,62.9 36.5,63 37.5,62.7 C38.9,62.2 38.7,60.5 39.6,59.6 C39.8,59.4 40.1,58.9 40.3,58.9 C42.2,59 41.9,57.8 41.9,56.6 C41.9,56 41.6,55 42.4,54.8 C44.4,54.2 43,52.6 43.5,51.6 C44.4,50.1 44.5,48.3 42.5,47 M39.2,38.7 C38.3,38.1 37.7,37.4 38,36.5 C38.4,34.9 36.8,35.4 36.3,34.8 C36,34.5 35.9,33.7 36.1,33.5 C37.1,32.1 36,30.7 36.1,29.3 C36.1,28.5 36,27.8 36.7,27 C37.5,26.1 35.5,25.6 36.1,24.6 C36.2,24.5 36.1,24.3 36.1,24.1 C36.4,22.7 37.8,22.5 38.8,21.8 C40.2,20.7 37.1,19.7 38.3,18.5 C39.3,17.5 39.9,15.9 41.8,16.1 C42.2,16.1 42.7,15.8 43.1,15.6 C42,13.2 45.4,12.6 45,10.1 C43.6,10.1 42.1,10 40.6,10.1 C39.1,10.3 36.8,9 36.2,10.8 C35.3,13.4 33.6,11.2 32.6,12 C32.4,12.2 32.1,12.6 32.1,12.8 C32.7,14.6 30.7,14.6 30.3,15.5 C29.2,17.7 25.9,19.4 27.9,22.7 C26.5,23.3 28.2,24.7 27.8,24.7 C25.5,25 26.2,26.7 26.1,28 L28.6,32 C30.2,33.7 31.1,35.9 33.4,37 C34.3,37.4 34.8,38.3 35.6,37 C36.5,37.6 36.9,39 38.3,39 C38.4,39 38.5,38.9 39.2,38.7 "/>
</g>

<g fill="#3399ff" fill-opacity="1" stroke="#3399ff" stroke-opacity="1" stroke-width="1" stroke-linecap="square" stroke-linejoin="miter" stroke-miterlimit="2" transform="matrix(0.811765,0,0,0.811765,8,16)"
>
</g>

<g fill="#3399ff" fill-opacity="1" stroke="#3399ff" stroke-opacity="1" stroke-width="1" stroke-linecap="square" stroke-linejoin="miter" stroke-miterlimit="2" transform="matrix(0.811765,0,0,0.811765,8,16)"
>
</g>

<g fill="#3399ff" fill-opacity="1" stroke="#3399ff" stroke-opacity="1" stroke-width="1" stroke-linecap="square" stroke-linejoin="miter" stroke-miterlimit="2" transform="matrix(0.811765,0,0,0.811765,8,16)"
>
</g>

<g fill="#3399ff" fill-opacity="1" stroke="#3399ff" stroke-opacity="1" stroke-width="1" stroke-linecap="square" stroke-linejoin="miter" stroke-miterlimit="2" transform="matrix(1,0,0,1,0,0)"
>
</g>

<g fill="#3399ff" fill-opacity="1" stroke="#3399ff" stroke-opacity="1" stroke-width="1" stroke-linecap="square" stroke-linejoin="miter" stroke-miterlimit="2" transform="matrix(1,0,0,1,0,0)"
>
</g>

<g fill="#3399ff" fill-opacity="1" stroke="#3399ff" stroke-opacity="1" stroke-width="1" stroke-linecap="square" stroke-linejoin="miter" stroke-miterlimit="2" transform="matrix(1,0,0,1,0,0)"
>
</g>

<g fill="#3399ff" fill-opacity="1" stroke="#3399ff" stroke-opacity="1" stroke-width="1" stroke-linecap="square" stroke-linejoin="miter" stroke-miterlimit="2" transform="matrix(1,0,0,1,0,0)"
>
</g>

<g fill="#3399ff" fill-opacity="1" stroke="#3399ff" stroke-opacity="1" stroke-width="1" stroke-linecap="square" stroke-linejoin="miter" stroke-miterlimit="2" transform="matrix(0.811765,0,0,0.811765,8,16)"
>
</g>

<g fill="#3399ff" fill-opacity="1" stroke="#3399ff" stroke-opacity="1" stroke-width="1" stroke-linecap="square" stroke-linejoin="miter" stroke-miterlimit="2" transform="matrix(0.811765,0,0,0.811765,8,16)"
>
</g>

<g fill="#3399ff" fill-opacity="1" stroke="#3399ff" stroke-opacity="1" stroke-width="1" stroke-linecap="square" stroke-linejoin="miter" stroke-miterlimit="2" transform="matrix(0.811765,0,0,0.811765,8,16)"
>
</g>

<g fill="#3399ff" fill-opacity="1" stroke="#3399ff" stroke-opacity="1" stroke-width="1" stroke-linecap="square" stroke-linejoin="miter" stroke-miterlimit="2" transform="matrix(1,0,0,1,0,0)"
>
</g>

<g fill="#3399ff" fill-opacity="1" stroke="#3399ff" stroke-opacity="1" stroke-width="1" stroke-linecap="square" stroke-linejoin="miter" stroke-miterlimit="2" transform="matrix(1,0,0,1,0,0)"
>
</g>

<g fill="#3399ff" fill-opacity="1" stroke="#3399ff" stroke-opacity="1" stroke-width="1" stroke-linecap="square" stroke-linejoin="miter" stroke-miterlimit="2" transform="matrix(1,0,0,1,0,0)"
>
</g>

<g fill="#3399ff" fill-opacity="1" stroke="#3399ff" stroke-opacity="1" stroke-width="1" stroke-linecap="square" stroke-linejoin="miter" stroke-miterlimit="2" transform="matrix(1,0,0,1,0,0)"
>
</g>

<g fill="#3399ff" fill-opacity="1" stroke="#3399ff" stroke-opacity="1" stroke-width="1" stroke-linecap="square" stroke-linejoin="miter" stroke-miterlimit="2" transform="matrix(1,0,0,1,0,0)"
>
</g>

<g fill="#3399ff" fill-opacity="1" stroke="#3399ff" stroke-opacity="1" stroke-width="1" stroke-linecap="square" stroke-linejoin="miter" stroke-miterlimit="2" transform="matrix(1,0,0,1,0,0)"
>
</g>
</g>
</svg>
